<svg width="21" height="21" viewBox="0 0 21 21" fill="none" xmlns="http://www.w3.org/2000/svg">
<g id="icon-google">
<path id="Vector" d="M19.1912 11.0166C19.1912 10.2979 19.1318 9.77289 19.0031 9.22852H10.6199V12.4754H15.5406C15.4412 13.2823 14.9056 14.4979 13.7156 15.3141L13.6987 15.4229L16.3487 17.4354L16.5324 17.4535C18.2193 15.9266 19.1912 13.681 19.1912 11.0173V11.0166Z" fill="#4285F4"/>
<path id="Vector_2" d="M10.6193 19.5729C13.0299 19.5729 15.0537 18.7954 16.5318 17.4536L13.7149 15.3142C12.9606 15.8298 11.9487 16.1892 10.6193 16.1892C9.49925 16.1893 8.40726 15.8388 7.49646 15.1869C6.58566 14.535 5.90172 13.6144 5.54055 12.5542L5.43618 12.5629L2.67993 14.6529L2.64368 14.7511C4.1118 17.6092 7.12805 19.5729 10.6193 19.5729Z" fill="#34A853"/>
<path id="Vector_3" d="M5.54054 12.5535C5.34557 11.9971 5.24501 11.4119 5.24304 10.8223C5.24304 10.2198 5.35241 9.63667 5.53054 9.09229L5.52554 8.97667L2.73491 6.85229L2.64366 6.89479C2.01917 8.11011 1.69268 9.45654 1.69116 10.8229C1.69116 12.2329 2.03866 13.5648 2.64366 14.7504L5.54054 12.5542V12.5535Z" fill="#FBBC05"/>
<path id="Vector_4" d="M10.6193 5.45612C12.2962 5.45612 13.4268 6.16612 14.0718 6.75925L16.5918 4.348C15.0443 2.938 13.0306 2.073 10.6193 2.073C7.12807 2.073 4.11182 4.03675 2.64307 6.89487L5.53057 9.09237C6.25432 6.983 8.25869 5.45612 10.6193 5.45612Z" fill="#EB4335"/>
</g>
</svg>
